<svg width="74" height="74" xmlns="http://www.w3.org/2000/svg">

 <g>
  <title>background</title>
  <rect fill="none" id="canvas_background" height="76" width="76" y="-1" x="-1"/>
 </g>
 <g>
  <title>Layer 1</title>
  <g id="Checkbox-checked">
   <path id="svg_1" fill="#00abba" d="m22.4305,28.442432c-0.2742,-0.504 -0.9062,-0.6915 -1.409199,-0.4173c-0.505001,0.2741 -0.691501,0.9051 -0.417301,1.4091l15.606699,28.710701c0.182501,0.335598 0.532301,0.5433 0.913302,0.5433c0.000999,0 0.001998,0 0.001998,0c0.382,-0.000999 0.7328,-0.210701 0.913201,-0.547401l27.744999,-51.6092c0.272201,-0.505 0.082699,-1.136 -0.423298,-1.4071c-0.503002,-0.2722 -1.135002,-0.0837 -1.4072,0.4233l-26.834801,49.9158l-14.6884,-27.0212z"/>
   <path id="svg_2" fill="#00abba" d="m66.9333,22.041633c-0.5685,0 -1.029102,0.460699 -1.029102,1.029199l0,29.9333c0,7.685002 -6.25259,13.9375 -13.937496,13.9375l-29.933402,0c-7.6849,0 -13.9375,-6.252498 -13.9375,-13.9375l0,-29.9333c0,-7.685 6.2526,-13.9375 13.9375,-13.9375l29.933401,0c0.568497,0 1.029099,-0.4607 1.029099,-1.0292s-0.460602,-1.0291 -1.029099,-1.0291l-29.933401,0c-8.819899,0 -15.9958,7.175801 -15.9958,15.9958l0,29.9333c0,8.82 7.1759,15.995899 15.9958,15.995899l29.933401,0c8.819905,0 15.995797,-7.175899 15.995797,-15.995899l0,-29.9333c0,-0.5685 -0.460598,-1.029199 -1.029198,-1.029199z"/>
  </g>
  <g id="svg_3"/>
  <g id="svg_4"/>
  <g id="svg_5"/>
  <g id="svg_6"/>
  <g id="svg_7"/>
  <g id="svg_8"/>
  <g id="svg_9"/>
  <g id="svg_10"/>
  <g id="svg_11"/>
  <g id="svg_12"/>
  <g id="svg_13"/>
  <g id="svg_14"/>
  <g id="svg_15"/>
  <g id="svg_16"/>
  <g id="svg_17"/>
 </g>
</svg>