<svg width="74" height="74" xmlns="http://www.w3.org/2000/svg">

 <g>
  <title>background</title>
  <rect fill="none" id="canvas_background" height="76" width="76" y="-1" x="-1"/>
 </g>
 <g>
  <title>Layer 1</title>
  <g stroke="null" id="Checkbox-checked">
   <path stroke="null" id="svg_1" fill="#00abba" d="m19.877525,26.941747c-0.315131,-0.579233 -1.041471,-0.794722 -1.619554,-0.479591c-0.580384,0.315016 -0.794723,1.040207 -0.479593,1.61944l17.936351,32.996421c0.209743,0.385694 0.611759,0.6244 1.049633,0.6244c0.001148,0 0.002296,0 0.002296,0c0.439022,-0.001148 0.842187,-0.242153 1.049517,-0.629113l31.886566,-59.313037c0.312833,-0.580383 0.095044,-1.305574 -0.486485,-1.617141c-0.578086,-0.312832 -1.304427,-0.096194 -1.617256,0.486487l-30.8405,57.366859l-16.880975,-31.054724z"/>
   <path stroke="null" id="svg_2" fill="#e7417a" d="m71.023372,19.585485c-0.653361,0 -1.182719,0.529469 -1.182719,1.18283l0,34.40152c0,8.832162 -7.18593,16.017986 -16.017982,16.017986l-34.401638,0c-8.832045,0 -16.017986,-7.185824 -16.017986,-16.017986l0,-34.40152c0,-8.83216 7.185942,-16.017986 16.017986,-16.017986l34.401636,0c0.653358,0 1.182715,-0.52947 1.182715,-1.182831s-0.529357,-1.182716 -1.182715,-1.182716l-34.401636,0c-10.136468,0 -18.383534,8.246951 -18.383534,18.383534l0,34.40152c0,10.136584 8.247065,18.383648 18.383534,18.383648l34.401636,0c10.136475,0 18.383531,-8.247064 18.383531,-18.383648l0,-34.40152c0,-0.653361 -0.529353,-1.18283 -1.182829,-1.18283z"/>
  </g>
  <g id="svg_3"/>
  <g id="svg_4"/>
  <g id="svg_5"/>
  <g id="svg_6"/>
  <g id="svg_7"/>
  <g id="svg_8"/>
  <g id="svg_9"/>
  <g id="svg_10"/>
  <g id="svg_11"/>
  <g id="svg_12"/>
  <g id="svg_13"/>
  <g id="svg_14"/>
  <g id="svg_15"/>
  <g id="svg_16"/>
  <g id="svg_17"/>
 </g>
</svg>